<?xml version="1.0" encoding="utf-8"?>
<!-- Generator: Adobe Illustrator 25.4.1, SVG Export Plug-In . SVG Version: 6.00 Build 0)  -->
<svg version="1.1" id="Layer_1" xmlns="http://www.w3.org/2000/svg" xmlns:xlink="http://www.w3.org/1999/xlink" x="0px" y="0px"
	 viewBox="-300 -200 2000 926" style="enable-background:new 0 0 1000 326;" xml:space="preserve">
<style type="text/css">
	.st2{opacity:0.2;}
	.st3{fill:#FFFFFF;}
</style>
<g>
    <g class="st2">
        <path class="st3" d="M714.5,338.9c-1.5-2.3-3-4.3-4.5-6.2l-1.4-1.5c-4.2-4-7.5-7.2-10.4-10.3c-22.7-23.4-30.3-39.6-27.8-59.4
            l0.1-0.5l0.1-0.7c5.8-48.7-6.5-97.8-34.5-138c-28.1-40.2-69.9-68.6-117.6-80c-15.3-6.5-25.9-19.4-37.5-46
            c-1.9-4.2-3.7-8.7-5.5-13.4l-0.8-1.8c-1.2-2.1-2.4-4.3-4-6.5c-12.6-18.9-32.2-31.9-54.5-36.3c-22.3-4.4-45.4,0.2-64.2,12.9
            l-1.2,0.8c-4.6,3.7-8.7,7.1-12.2,10.4C325.1-25.8,312.8-12.9,301.8,1c-3.9,4.9-7.5,9.9-10.9,15c-3.6,5.4-7,10.8-10.1,16.2
            c-33.4,58.8-35.3,122.5-2,175.6c0.2,0.4,0.5,0.8,0.8,1.2c4.9,7.7,9.4,14.6,13.4,20.6c20,29.8,29.8,40.4,38.7,50
            c19.5,21.3,35.6,45.4,47.9,71.6c6.5,14.2,14,30.3,45,74.4l0.5,0.7c36.5,51.9,96.5,74.8,164.1,66.2c6.2-0.8,12.5-1.8,18.9-3.2
            c6-1.2,12-2.7,18-4.5c17-4.9,33.5-11.3,49.4-19.1c4.5-2.1,9.2-4.6,14.4-7.4l1.2-0.8c18.8-12.6,31.8-32.2,36.3-54.4
            C731.6,380.8,727,357.8,714.5,338.9z M660.3,434.5c-17.5,8.6-35.9,15.1-54.9,19.4c-6.2,1.4-12.4,2.5-18.7,3.4
            c-6.6,0.9-13.2,1.5-19.9,1.7c-42.7,1.4-84.6-12.3-112.8-52.3l-0.4-0.7c-29.4-41.9-35.8-55.8-42-69.3c-13.8-29.5-32-56.7-54-80.7
            c-10-10.8-20.4-22-47.9-64.9l-0.8-1.2c-26.1-41.3-22.8-85.1-5.3-124c2.7-6.1,5.8-12,9.1-17.7c3.2-5.5,6.6-10.8,10.2-16
            c11.3-16,24.4-30.7,39-43.7c3-2.7,6.3-5.5,10.1-8.6c11.2-7.3,24.7-9.8,37.8-7.2c13,2.7,24.5,10.3,31.9,21.4
            c0.6,0.9,1.2,1.9,1.8,2.8c1.9,4.7,3.7,9.3,5.6,13.5c11,25.2,26.4,52.5,57.8,64.9l2.5,0.8c39.6,9.1,74.4,32.5,97.7,65.7
            c23.4,33.2,33.7,73.8,29,114.2l-0.1,0.7l0,0.2c-5,38.6,15,65.3,37.2,88.3c3,3.2,6.4,6.5,10.5,10.5c0.7,0.8,1.3,1.7,1.9,2.7
            c7.4,11.1,10.1,24.6,7.6,37.7c-2.5,13.1-10,24.6-21,32.2C667.9,430.6,664,432.6,660.3,434.5L660.3,434.5z"/>
        <path class="st3" d="M194.5,467.5c-1.5-2.3-3-4.3-4.5-6.2l-1.4-1.5c-4.2-4-7.5-7.2-10.4-10.3c-22.7-23.4-30.3-39.6-27.8-59.4
            l0.1-0.5l0.1-0.7c5.8-48.7-6.5-97.8-34.5-138c-28.1-40.2-69.9-68.6-117.6-80c-15.3-6.5-25.9-19.4-37.5-46
            c-1.9-4.2-3.7-8.7-5.5-13.4l-0.8-1.8c-1.2-2.1-2.4-4.3-4-6.5C-62.1,84.5-81.7,71.4-104,67c-22.3-4.4-45.4,0.2-64.2,12.9l-1.2,0.8
            c-4.6,3.7-8.7,7.1-12.2,10.4c-13.3,11.7-25.6,24.6-36.6,38.5c-3.9,4.9-7.5,9.9-10.9,15c-3.6,5.4-7,10.8-10.1,16.3
            c-33.4,58.8-35.3,122.5-2,175.6c0.2,0.4,0.5,0.8,0.8,1.2c4.9,7.7,9.4,14.6,13.4,20.6c20,29.8,29.8,40.4,38.7,50
            c19.5,21.3,35.6,45.4,47.9,71.6c6.5,14.2,14,30.3,45,74.4l0.5,0.7c36.5,51.9,96.5,74.8,164.1,66.2c6.2-0.8,12.5-1.8,18.9-3.2
            c6-1.2,12-2.7,18-4.5c17-4.9,33.5-11.3,49.4-19.1c4.5-2.1,9.2-4.6,14.4-7.4l1.2-0.8c18.8-12.6,31.8-32.2,36.3-54.4
            C211.6,509.5,207,486.4,194.5,467.5z M140.3,563.1c-17.5,8.6-35.9,15.1-54.9,19.4c-6.2,1.4-12.4,2.5-18.7,3.4
            c-6.6,0.9-13.2,1.5-19.9,1.7C4,588.9-37.9,575.3-66.1,535.2l-0.4-0.7c-29.4-41.9-35.8-55.8-42-69.3c-13.8-29.5-32-56.7-54-80.7
            c-10-10.8-20.4-22-47.9-64.9l-0.8-1.1c-26.1-41.3-22.8-85.1-5.3-124c2.7-6.1,5.8-12,9.1-17.7c3.2-5.5,6.6-10.8,10.2-16
            c11.3-16,24.4-30.7,39-43.7c3-2.7,6.3-5.5,10.1-8.6c11.2-7.3,24.7-9.8,37.8-7.2c13,2.7,24.5,10.3,31.9,21.4
            c0.6,0.9,1.2,1.9,1.8,2.8c1.9,4.7,3.7,9.3,5.6,13.5c11,25.2,26.4,52.5,57.8,64.9l2.5,0.8c39.6,9.1,74.4,32.5,97.7,65.7
            c23.4,33.2,33.7,73.8,29,114.2l-0.1,0.7l0,0.2c-5,38.6,15,65.3,37.2,88.3c3,3.2,6.4,6.5,10.5,10.5c0.7,0.8,1.3,1.7,1.9,2.7
            c7.4,11.1,10.1,24.6,7.6,37.7c-2.5,13.1-10,24.7-21,32.2C147.9,559.2,144,561.2,140.3,563.1L140.3,563.1z"/>
        <path class="st3" d="M602-53.7c1.5,2.3,3,4.3,4.5,6.2l1.4,1.5c4.2,4,7.5,7.2,10.4,10.3c22.7,23.4,30.3,39.6,27.8,59.4l-0.1,0.5
            l-0.1,0.7c-5.8,48.7,6.5,97.8,34.5,138c28.1,40.2,69.9,68.6,117.6,80c15.3,6.5,25.9,19.4,37.5,46c1.9,4.2,3.7,8.7,5.5,13.4
            l0.8,1.8c1.2,2.1,2.4,4.3,4,6.5c12.6,18.9,32.2,31.9,54.5,36.3c22.3,4.4,45.4-0.2,64.2-12.9l1.2-0.8c4.6-3.7,8.7-7.1,12.2-10.4
            c13.3-11.7,25.6-24.6,36.6-38.5c3.9-4.9,7.5-9.9,10.9-15c3.6-5.4,7-10.8,10.1-16.2c33.4-58.8,35.3-122.5,2-175.6
            c-0.2-0.4-0.5-0.8-0.8-1.2c-4.9-7.7-9.4-14.6-13.4-20.6c-20-29.8-29.8-40.4-38.7-50c-19.5-21.3-35.6-45.4-47.9-71.6
            c-6.5-14.2-14-30.3-45-74.4l-0.5-0.7c-36.5-51.9-96.5-74.8-164.1-66.2c-6.2,0.8-12.5,1.8-18.9,3.2c-6,1.2-12,2.7-18,4.5
            c-17,4.9-33.5,11.3-49.4,19.1c-4.5,2.1-9.2,4.6-14.4,7.4l-1.2,0.8c-18.8,12.6-31.8,32.2-36.3,54.4
            C584.9-95.6,589.4-72.5,602-53.7z M656.2-149.2c17.5-8.6,35.9-15.1,54.9-19.4c6.2-1.4,12.4-2.5,18.7-3.4
            c6.6-0.9,13.2-1.5,19.9-1.7c42.7-1.4,84.6,12.3,112.8,52.3l0.4,0.7c29.4,41.9,35.8,55.8,42,69.3c13.8,29.5,32,56.7,54,80.7
            c10,10.8,20.4,22,47.9,64.9l0.8,1.2c26.1,41.3,22.8,85.1,5.3,124c-2.7,6.1-5.8,12-9.1,17.7c-3.2,5.5-6.6,10.8-10.2,16
            c-11.3,16-24.4,30.7-39,43.7c-3,2.7-6.3,5.5-10.1,8.6c-11.2,7.3-24.7,9.8-37.8,7.2c-13-2.7-24.5-10.3-31.9-21.4
            c-0.6-0.9-1.2-1.9-1.8-2.8c-1.9-4.7-3.7-9.3-5.6-13.5c-11-25.2-26.4-52.5-57.8-64.9l-2.5-0.8c-39.6-9.1-74.4-32.5-97.7-65.7
            c-23.4-33.2-33.7-73.8-29-114.2l0.1-0.7l0-0.2c5-38.6-15-65.3-37.2-88.3c-3-3.2-6.4-6.5-10.5-10.5c-0.7-0.8-1.3-1.7-1.9-2.7
            c-7.4-11.1-10.1-24.6-7.6-37.7c2.5-13.1,10-24.7,21-32.2C648.5-145.4,652.4-147.4,656.2-149.2L656.2-149.2z"/>
        <path class="st3" d="M1325.5,254.9c-1.5-2.3-3-4.3-4.5-6.2l-1.4-1.5c-4.2-4-7.4-7.2-10.4-10.3c-22.7-23.4-30.3-39.6-27.8-59.4
            l0.1-0.5l0.1-0.7c5.8-48.7-6.5-97.8-34.5-138c-28-40.2-69.9-68.6-117.6-80c-15.3-6.5-25.9-19.4-37.5-46
            c-1.8-4.2-3.7-8.7-5.5-13.4l-0.8-1.8c-1.2-2.1-2.4-4.3-4-6.5c-12.6-18.9-32.2-31.9-54.5-36.3c-22.3-4.4-45.4,0.2-64.2,12.9
            l-1.2,0.8c-4.6,3.7-8.7,7.1-12.2,10.4c-13.3,11.7-25.6,24.6-36.6,38.5c-3.9,4.9-7.5,9.9-10.9,15c-3.6,5.4-7,10.8-10.1,16.2
            c-33.4,58.8-35.3,122.5-2,175.6c0.2,0.4,0.5,0.8,0.8,1.2c4.9,7.7,9.4,14.6,13.5,20.6c20,29.8,29.8,40.4,38.7,50
            c19.5,21.3,35.6,45.4,47.9,71.6c6.5,14.2,14,30.3,45,74.4l0.4,0.7c36.5,51.9,96.5,74.8,164.1,66.2c6.2-0.8,12.5-1.8,18.9-3.2
            c6-1.2,12-2.7,18-4.5c17-4.9,33.5-11.3,49.4-19.1c4.5-2.1,9.2-4.6,14.4-7.4l1.2-0.8c18.8-12.6,31.8-32.2,36.3-54.4
            C1342.6,296.8,1338,273.8,1325.5,254.9z M1271.3,350.5c-17.5,8.6-35.9,15.1-54.9,19.4c-6.2,1.4-12.4,2.5-18.7,3.4
            c-6.6,0.9-13.2,1.5-19.9,1.7c-42.7,1.4-84.6-12.3-112.8-52.3l-0.5-0.7c-29.4-41.9-35.8-55.8-42-69.3c-13.8-29.5-32-56.7-54-80.7
            c-10-10.8-20.4-22-47.9-64.9l-0.8-1.1c-26.1-41.3-22.8-85.1-5.3-124c2.7-6.1,5.8-12,9.1-17.7c3.2-5.5,6.6-10.8,10.2-16
            c11.3-16,24.4-30.7,39-43.7c3-2.7,6.3-5.5,10.1-8.6c11.2-7.3,24.7-9.8,37.8-7.2c13,2.7,24.5,10.3,31.9,21.4
            c0.6,0.9,1.2,1.9,1.8,2.8c1.9,4.7,3.7,9.3,5.6,13.5c11,25.2,26.4,52.5,57.8,64.9l2.5,0.8c39.6,9.1,74.4,32.5,97.7,65.7
            c23.4,33.2,33.7,73.8,29,114.2l-0.1,0.7l0,0.2c-5,38.6,15,65.3,37.2,88.3c3,3.2,6.4,6.5,10.5,10.5c0.7,0.8,1.3,1.7,1.9,2.7
            c7.4,11.1,10.1,24.6,7.6,37.7c-2.5,13.1-10,24.6-21,32.2C1278.9,346.6,1275,348.6,1271.3,350.5L1271.3,350.5z"/>
        <path class="st3" d="M138,228.3c1.5,2.3,3,4.3,4.5,6.2l1.4,1.5c4.2,4,7.5,7.2,10.4,10.3c22.7,23.4,30.3,39.6,27.8,59.4l-0.1,0.5
            l-0.1,0.7c-5.8,48.7,6.5,97.8,34.5,138c28.1,40.2,69.9,68.6,117.6,80c15.3,6.5,25.9,19.4,37.5,46c1.9,4.2,3.7,8.7,5.5,13.4
            l0.8,1.8c1.2,2.1,2.4,4.3,4,6.5c12.6,18.9,32.2,31.9,54.5,36.3c22.3,4.4,45.4-0.2,64.2-12.9l1.2-0.8c4.6-3.7,8.7-7.1,12.2-10.4
            c13.3-11.7,25.6-24.6,36.6-38.5c3.9-4.9,7.5-9.9,10.9-15c3.6-5.4,7-10.8,10.1-16.3c33.4-58.8,35.3-122.5,2-175.6
            c-0.2-0.4-0.5-0.8-0.8-1.2c-4.9-7.7-9.4-14.6-13.4-20.6c-20-29.8-29.8-40.4-38.7-50c-19.5-21.3-35.6-45.4-47.9-71.6
            c-6.5-14.2-14-30.3-45-74.4l-0.5-0.7C390.9,89.1,331,66.2,263.4,74.8c-6.2,0.8-12.5,1.8-18.9,3.2c-6,1.2-12,2.7-18,4.5
            c-17,4.9-33.5,11.3-49.4,19.1c-4.5,2.1-9.2,4.6-14.4,7.5l-1.2,0.8c-18.8,12.6-31.8,32.2-36.3,54.4
            C120.9,186.4,125.4,209.5,138,228.3z M192.2,132.8c17.5-8.6,35.9-15.1,54.9-19.4c6.2-1.4,12.4-2.5,18.7-3.4
            c6.6-0.9,13.2-1.5,19.9-1.7c42.7-1.4,84.6,12.3,112.8,52.3l0.4,0.7c29.4,41.9,35.8,55.8,42,69.3c13.8,29.5,32,56.7,54,80.7
            c10,10.8,20.4,22,47.9,64.9l0.8,1.1c26.1,41.3,22.8,85.1,5.3,124c-2.7,6.1-5.8,12-9.1,17.7c-3.2,5.5-6.6,10.8-10.2,16
            c-11.3,16-24.4,30.7-39,43.7c-3,2.7-6.3,5.5-10.1,8.6c-11.2,7.3-24.7,9.8-37.8,7.2c-13-2.7-24.5-10.3-31.9-21.4
            c-0.6-0.9-1.2-1.9-1.8-2.8c-1.9-4.7-3.7-9.3-5.6-13.5c-11-25.2-26.4-52.5-57.8-64.9l-2.5-0.8c-39.6-9.1-74.4-32.5-97.7-65.7
            c-23.4-33.2-33.7-73.8-29-114.2l0.1-0.7l0-0.2c5-38.6-15-65.3-37.2-88.3c-3-3.2-6.4-6.5-10.5-10.5c-0.7-0.8-1.3-1.7-1.9-2.7
            c-7.4-11.1-10.1-24.6-7.6-37.7c2.5-13.1,10-24.6,21-32.2C184.5,136.6,188.4,134.6,192.2,132.8L192.2,132.8z"/>
    </g>
</g>
</svg>
